# Blender 4.5.4 LTS
# www.blender.org
mtllib rockl.mtl
o Cube
v -1.130086 -0.970568 -0.002886
v -0.842548 -0.842711 0.899796
v -0.916292 -0.777958 0.864783
v -1.086766 0.989343 0.329387
v -1.043686 1.005776 0.085009
v -0.912242 1.089405 -0.163733
v -0.865306 -0.044763 -1.019047
v -0.954162 -0.296268 -0.932012
v 0.299357 -0.948550 -0.955735
v 0.246631 -0.960900 -0.949823
v 0.181145 -0.881787 -0.995719
v 0.121010 -1.106822 -0.685620
v 0.105101 -0.773627 -1.063999
v -0.158214 1.085276 -1.129836
v -0.069871 1.099438 -1.150748
v 0.608974 0.931502 -0.996215
v 0.870134 0.009309 -0.876002
v 1.095526 -1.096511 0.166133
v 1.164129 -1.164129 0.000001
v 1.190214 -1.190214 -0.077496
v 1.182154 -1.176709 -0.175918
v 1.096421 -1.099032 -0.372391
v 0.879148 -1.072037 -0.591436
v 0.983235 0.892901 -0.532361
v 0.826563 0.644660 0.827217
v 0.877900 0.412544 0.937142
v 0.975458 0.068121 0.980079
v 0.994669 -0.120432 0.994086
v 0.983459 -0.184775 0.986548
v -0.604188 -0.996219 1.093440
v -0.210776 -1.112693 1.101498
v -0.141395 -1.095913 1.095914
v 0.569535 0.882561 1.021235
v 0.426372 1.005207 1.064704
v -0.083073 1.193222 1.200594
v -1.280710 -0.598621 0.408221
v -1.134251 -0.621899 0.606311
v -1.267171 -0.618501 0.403867
v -1.352519 -0.601108 0.266663
v -1.367939 -0.548215 0.285958
v -1.238113 0.632351 0.262049
v -1.158833 0.804650 0.314249
v -1.360905 -0.333530 0.274362
v -1.284901 0.347623 0.241120
v -1.345515 -0.694588 0.089076
v -1.385748 -0.570170 0.206297
v -1.398443 -0.414751 0.203300
v -1.396208 -0.212253 0.198606
v -1.343535 0.182720 0.191983
v -1.298826 0.404497 0.192552
v -1.224259 0.696504 0.244673
v -1.125865 0.913641 0.257911
v -1.318462 -0.770371 0.000131
v -1.366909 -0.619994 0.090076
v -1.131767 0.846020 0.089372
v -1.338679 -0.694048 -0.000000
v -1.357407 -0.518973 -0.019651
v -1.351176 -0.001644 0.094731
v -1.304941 -0.761645 -0.089181
v -1.304475 -0.684533 -0.154612
v -1.281006 -0.592527 -0.267234
v -1.266500 -0.686723 -0.233031
v -1.226549 -0.632252 -0.337711
v -1.241593 -0.568595 -0.384083
v -1.190614 -0.559719 -0.453513
v -1.185411 -0.499748 -0.517178
v -1.170878 -0.425791 -0.558603
v -1.119653 -0.467281 -0.617829
v -1.121318 -0.340367 -0.660935
v -1.112834 -0.425516 -0.673029
v -1.036108 -0.334669 -0.809150
v -1.025769 -0.399683 -0.772134
v -1.010864 -0.356155 -0.835093
v -1.026984 -0.180997 -0.806621
v -0.875750 -0.299509 -0.996491
v -0.848650 -0.232494 -1.060340
v -0.771261 -0.243287 -1.121556
v -0.718361 -0.193077 -1.192965
v -0.752499 -0.026320 -1.140178
v -0.370713 -0.350967 -1.219810
v -0.376760 -0.306414 -1.265479
v -0.533755 -0.175025 -1.311644
v -0.660419 -0.119546 -1.243303
v -0.579596 0.206815 -1.251325
v -0.537231 0.498544 -1.196096
v -0.546490 -0.135020 -1.330307
v -0.485335 0.094319 -1.343326
v -0.345352 -0.461136 -1.092402
v -0.448389 -0.255421 -1.279118
v -0.464245 -0.187626 -1.325139
v -0.402927 0.332753 -1.345960
v -0.395086 -0.236458 -1.308154
v -0.466095 0.045532 -1.350641
v -0.397111 0.209668 -1.347480
v -0.385440 0.518908 -1.305213
v -0.331823 0.672265 -1.279749
v -0.308202 -0.370347 -1.235541
v -0.319584 -0.310053 -1.279208
v -0.333011 0.522093 -1.329747
v -0.242909 -0.426701 -1.211434
v -0.250970 -0.359525 -1.254773
v -0.274643 0.652360 -1.309893
v -0.258031 0.835172 -1.246051
v -0.189072 -0.410986 -1.230658
v -0.192704 0.756939 -1.284687
v -0.163668 0.970650 -1.212367
v -0.137030 -0.511642 -1.182522
v -0.114790 -0.477149 -1.200026
v -0.204117 0.834599 -1.266209
v -0.038738 -0.186023 -1.191199
v 0.000136 0.932482 -1.206963
v 0.128163 -0.771093 -1.069356
v 0.166019 -0.835419 -1.034479
v 0.178139 -0.780933 -1.052712
v 0.238085 -0.872962 -1.005746
v 0.285559 -0.139969 -1.009070
v 0.492916 0.272269 -1.052249
v 0.390101 -0.072457 -0.976635
v 0.634511 0.606488 -1.042180
v 0.619364 0.806762 -1.022491
v 0.644704 0.364120 -1.020749
v 0.669709 0.428044 -1.012957
v 0.755895 0.175029 -0.942835
v 0.710520 0.300821 -0.974241
v 0.716225 -0.103223 -0.911772
v 0.779159 0.175817 -0.911291
v 0.765836 0.110336 -0.932528
v 0.970373 -0.094277 -0.819412
v 1.132791 -0.195828 -0.706735
v 1.099227 0.586851 -0.524648
v 1.174373 0.368289 -0.477849
v 0.983895 0.869771 -0.597804
v 1.189242 0.074553 -0.536383
v 1.068103 0.732398 -0.527952
v 1.311682 -0.274685 -0.541058
v 1.328008 -0.086143 -0.462543
v 1.332033 -0.690507 -0.382342
v 1.329232 -0.461951 -0.472760
v 1.356311 -0.285161 -0.479171
v 1.226740 0.302930 -0.433198
v 1.139948 0.562905 -0.477872
v 1.161922 0.495763 -0.414927
v 1.226226 -0.997155 -0.311329
v 1.315828 -0.845761 -0.306802
v 1.368815 -0.508728 -0.398880
v 1.360625 -0.679001 -0.327143
v 1.234222 0.184926 -0.242335
v 1.334873 -0.841595 -0.259326
v 1.240651 -1.114727 -0.152380
v 1.273701 -1.037738 -0.194863
v 1.239867 -1.113789 -0.076730
v 1.284193 -0.993430 0.025245
v 1.333867 -0.352403 0.046521
v 1.245926 -1.041322 0.049921
v 1.318288 -0.807721 0.154732
v 1.349720 -0.554440 0.065413
v 1.287938 -0.195564 0.092589
v 1.283775 -0.856156 0.198167
v 1.289084 -0.756855 0.246672
v 1.225234 -0.623516 0.409417
v 1.213594 -0.032146 0.182956
v 1.235837 -0.734441 0.345380
v 1.190426 -0.629435 0.458150
v 1.136095 0.096944 0.323733
v 1.188567 -0.549306 0.498473
v 1.097108 0.149368 0.450029
v 1.140317 -0.541907 0.557791
v 1.161048 -0.488513 0.550729
v 1.114853 -0.469815 0.631986
v 1.133638 -0.419915 0.603259
v 1.103344 -0.398120 0.686758
v 1.022082 0.081718 0.873743
v 1.054772 0.168557 0.692818
v 1.034675 -0.297620 0.839313
v 0.789950 -0.192881 1.112817
v 0.809596 -0.232098 1.066576
v 0.847517 0.305934 1.043238
v 0.722020 0.707749 0.964683
v 0.729580 0.505468 1.106405
v 0.607078 -0.253696 1.189732
v 0.443566 -0.350788 1.222301
v 0.604843 0.137796 1.170952
v 0.286308 0.328685 1.394717
v 0.303445 -0.432319 1.269710
v 0.109177 -0.539060 1.347995
v 0.160752 0.753680 1.446195
v 0.067898 0.305225 1.533628
v 0.076661 0.656684 1.501180
v 0.076318 0.769053 1.474844
v 0.072027 0.972571 1.347624
v 0.004426 1.063990 1.305238
v -0.151759 -0.579601 1.463060
v -0.073980 -0.303063 1.505321
v 0.004519 0.072367 1.576948
v 0.010049 0.547996 1.506176
v -0.003704 0.942572 1.373776
v -0.072109 -0.153009 1.548233
v -0.066289 0.005798 1.544310
v -0.004374 0.295366 1.546587
v -0.074835 1.111728 1.250858
v -0.213294 -0.669879 1.447197
v -0.147627 -0.374604 1.515104
v -0.144814 -0.229547 1.515164
v -0.223502 -1.029842 1.196561
v -0.268060 -0.775874 1.399352
v -0.220131 -0.587460 1.468861
v -0.296719 -0.968214 1.277664
v -0.291521 -0.875749 1.341158
v -0.294503 -0.690565 1.415432
v -0.221473 -0.461403 1.474926
v -0.327591 -1.014112 1.226123
v -0.374158 -0.951700 1.308525
v -0.358095 -0.860635 1.341316
v -0.476334 -0.981736 1.204105
v -0.474411 -0.911371 1.249178
v -0.558669 -0.957077 1.169804
v -0.560090 -0.822192 1.202043
v -0.718317 -0.870278 1.051059
v -0.860309 -0.722538 0.931068
v 0.220377 -1.049888 -0.828505
v 0.320540 -1.015008 -0.916098
v 0.585234 -0.924466 -0.845922
v 0.307793 -1.052893 -0.859188
v 0.420477 -1.041641 -0.850467
v 0.578416 -1.026447 -0.799644
v 0.534409 -1.054902 -0.781296
v 0.194142 -1.104382 -0.736760
v 0.768848 -1.034465 -0.690328
v 0.081209 -1.184094 -0.555016
v 0.135305 -1.152919 -0.626311
v 0.773439 -1.086335 -0.643570
v 0.061786 -1.222840 -0.495068
v 0.944271 -1.109608 -0.501886
v 0.885255 -1.133431 -0.490543
v 1.012381 -1.140322 -0.409049
v 0.030671 -1.246148 -0.444988
v -0.001272 -1.428546 -0.131909
v -0.075106 -1.457428 -0.084170
v 1.019933 -1.277512 -0.073698
v 1.114721 -1.240920 -0.076797
v -0.919242 -1.133264 0.022980
v 0.805756 -1.388306 0.077043
v 0.933261 -1.329176 0.000845
v 1.051205 -1.265097 0.005937
v -0.773300 -1.252675 0.083140
v -0.372071 -1.432928 0.077822
v -0.072809 -1.527498 0.052128
v 0.726039 -1.404493 0.073183
v 0.963994 -1.304127 0.052452
v -0.830988 -1.211248 0.113464
v -0.753294 -1.282121 0.137046
v -0.628926 -1.352838 0.140098
v -0.069692 -1.541170 0.138549
v 0.018498 -1.555633 0.165596
v 0.098799 -1.541720 0.144135
v 0.519680 -1.470579 0.145774
v 0.655533 -1.445428 0.146193
v 0.804292 -1.365444 0.131644
v -0.675966 -1.320437 0.212189
v -0.620503 -1.355427 0.213355
v -0.437865 -1.432789 0.138081
v 0.158358 -1.561951 0.224118
v 0.306852 -1.545835 0.246826
v 0.528444 -1.482545 0.219117
v 0.147378 -1.543863 0.294666
v 0.241578 -1.567374 0.311389
v 0.299787 -1.559522 0.299788
v 0.394649 -1.515021 0.284017
v 0.674124 -1.383774 0.222858
v 0.181053 -1.506120 0.415782
v 0.215264 -1.479229 0.463782
v 0.868001 -1.280396 0.179229
v 0.131320 -1.429358 0.569802
v 0.139143 -1.376639 0.638462
v 0.060158 -1.355624 0.700175
v -0.065955 -1.245759 0.886194
v -0.131391 -1.193499 0.966934
v 0.064183 -1.321956 0.750243
v -0.039525 -1.195685 0.946365
v -0.142155 -1.157980 1.041458
v 0.561552 1.047078 -0.971819
v 0.032564 1.232227 -1.056869
v -0.037550 1.250621 -1.028558
v 0.869448 1.022341 -0.672721
v 0.076144 1.337626 -0.969733
v -0.105160 1.339231 -0.880020
v -0.295372 1.269166 -0.832473
v -0.467673 1.209792 -0.735170
v 0.636941 1.081540 -0.902765
v 0.160837 1.424557 -0.855887
v 0.057231 1.385399 -0.898777
v 0.797658 1.098311 -0.711762
v 0.720824 1.172211 -0.726200
v 0.908551 0.993325 -0.605162
v 0.307655 1.476127 -0.665807
v 0.226507 1.459350 -0.754633
v -0.398691 1.262003 -0.722216
v 0.616551 1.301706 -0.610267
v 0.221738 1.487032 -0.658024
v -0.521615 1.221872 -0.642288
v -0.661110 1.162292 -0.531707
v 0.460932 1.426164 -0.563917
v 0.306862 1.512011 -0.595615
v -0.064902 1.379074 -0.797673
v 0.305627 1.544448 -0.343992
v -0.786837 1.125584 -0.373997
v 0.222758 1.543194 -0.181093
v -0.721699 1.165386 -0.397912
v -0.838420 1.147388 -0.211297
v 0.284847 1.547401 -0.032155
v 0.222230 1.565485 0.031817
v 0.149352 1.553142 0.135739
v -0.862906 1.162282 -0.039752
v -0.940818 1.145671 0.078044
v 0.193215 1.551026 0.264158
v 0.148646 1.564285 0.266218
v -0.863856 1.209724 0.262542
v 0.078685 1.553980 0.461195
v 0.074303 1.552564 0.353045
v -0.934265 1.184158 0.386031
v 0.311211 1.410214 0.532473
v -0.861807 1.228231 0.401471
v 0.006388 1.532892 0.615963
v -0.019152 1.537588 0.580843
v -0.769631 1.270181 0.482000
v -0.825675 1.250484 0.478491
v -0.991277 1.086360 0.401568
v -0.648944 1.323993 0.550093
v -0.828834 1.233170 0.494858
v 0.007407 1.511304 0.672372
v -0.092950 1.523221 0.689404
v -0.479245 1.392406 0.722443
v -0.638849 1.321663 0.630800
v 0.311803 1.284046 0.816143
v -0.083363 1.487391 0.792679
v -0.160261 1.499134 0.776975
v -0.364172 1.434703 0.748299
v -0.563080 1.332211 0.706689
v -0.179243 1.471918 0.872106
v -0.242381 1.466071 0.863687
v -0.408066 1.383317 0.811263
v -0.154294 1.388194 1.000032
v -0.085365 1.305800 1.085879
v -0.177825 1.350719 1.023289
v 0.240725 1.177694 1.047521
vn -0.8097 -0.2575 0.5273
vn -0.8176 -0.3922 0.4216
vn -0.8802 0.2915 0.3746
vn -0.9686 -0.0746 0.2371
vn -0.8934 0.0203 0.4488
vn -0.8663 0.4733 -0.1596
vn -0.9666 -0.1283 -0.2217
vn -0.8512 -0.3366 -0.4028
vn -0.8663 -0.2829 -0.4116
vn -0.8292 -0.2991 -0.4721
vn -0.8003 -0.1655 -0.5763
vn -0.8915 -0.0246 -0.4523
vn -0.8664 0.0596 -0.4958
vn -0.6012 -0.4654 -0.6495
vn -0.8389 0.0587 -0.5412
vn -0.8205 0.0948 -0.5637
vn -0.5540 -0.5233 -0.6475
vn -0.7355 0.0826 -0.6724
vn -0.7219 0.0701 -0.6884
vn -0.3363 -0.7215 -0.6053
vn -0.5225 -0.1615 -0.8372
vn -0.6678 0.1474 -0.7296
vn -0.6078 0.1313 -0.7832
vn -0.2984 0.0254 -0.9541
vn -0.5636 0.1859 -0.8048
vn -0.5802 0.2258 -0.7826
vn -0.5881 0.2321 -0.7748
vn -0.1578 0.0853 -0.9838
vn -0.3705 -0.6936 -0.6178
vn -0.3472 -0.6597 -0.6665
vn -0.5016 0.5211 -0.6906
vn 0.5113 -0.0959 -0.8540
vn 0.7953 0.1396 -0.5900
vn -0.7865 0.0653 -0.6142
vn -0.0641 -0.5399 -0.8393
vn -0.5172 -0.6419 -0.5661
vn 0.4682 -0.1767 -0.8658
vn 0.7912 -0.1427 -0.5947
vn 0.6467 0.2233 -0.7293
vn 0.9414 0.3022 0.1500
vn 0.8710 -0.3757 -0.3165
vn 0.8152 -0.5186 0.2577
vn 0.6250 -0.5617 0.5421
vn 0.8098 -0.4585 0.3660
vn 0.8831 -0.3665 0.2930
vn 0.9401 0.0036 0.3409
vn 0.5717 -0.5311 0.6253
vn 0.8133 -0.2899 0.5045
vn 0.8402 -0.2087 0.5006
vn 0.8458 0.5056 -0.1702
vn 0.9031 0.1226 0.4116
vn 0.6670 -0.5460 -0.5069
vn 0.5020 -0.0689 0.8621
vn 0.7898 0.3715 0.4881
vn 0.4724 -0.5629 0.6782
vn 0.5009 -0.5362 0.6794
vn 0.4898 0.0680 0.8691
vn 0.1086 0.4831 0.8688
vn 0.3507 -0.2371 0.9060
vn 0.1346 -0.0030 0.9909
vn -0.4470 0.0385 0.8937
vn 0.0898 -0.0469 0.9949
vn -0.2540 -0.8347 0.4886
vn -0.5801 -0.1325 0.8037
vn -0.4490 -0.6578 0.6048
vn 0.4668 -0.5667 0.6789
vn -0.2655 -0.8677 0.4203
vn -0.2187 -0.8102 -0.5438
vn 0.0134 -0.8646 -0.5023
vn -0.3053 -0.8490 -0.4313
vn 0.4675 -0.8720 0.1448
vn -0.3781 -0.8295 -0.4109
vn -0.6828 -0.6199 0.3866
vn 0.1548 -0.9203 -0.3593
vn 0.4493 -0.7463 0.4912
vn 0.4850 -0.6746 0.5565
vn -0.2853 -0.8896 0.3566
vn 0.4255 -0.7067 0.5653
vn 0.4493 -0.6710 0.5899
vn 0.0768 -0.8957 0.4380
vn -0.1246 0.6623 -0.7388
vn 0.7031 0.3448 -0.6219
vn -0.2838 0.7611 -0.5832
vn -0.2927 0.9090 -0.2967
vn -0.2472 0.9432 -0.2217
vn -0.5065 0.7670 -0.3939
vn 0.3546 0.1397 -0.9245
vn -0.5499 0.7913 -0.2673
vn -0.1929 0.9731 -0.1264
vn -0.6711 0.7242 -0.1587
vn -0.0975 0.9940 0.0497
vn -0.4081 0.9017 -0.1428
vn -0.7771 0.6263 -0.0617
vn -0.3942 0.9186 -0.0274
vn -0.3365 0.9356 -0.1067
vn -0.4425 0.8931 0.0811
vn -0.5015 0.8528 0.1457
vn -0.3047 0.9520 0.0277
vn -0.5015 0.8078 0.3097
vn 0.8101 0.5545 0.1906
vn 0.2717 0.8287 0.4894
vn -0.5247 0.6618 0.5355
vn -0.2191 0.6101 0.7614
vn 0.5261 0.3768 -0.7624
vn -0.1372 0.6402 -0.7558
vn -0.7901 0.5698 -0.2260
vn -0.7643 0.0007 0.6449
vn -0.6920 -0.5687 0.4448
vn -0.7992 0.0602 0.5980
vn -0.8011 0.0584 0.5956
vn -0.8912 0.3897 0.2323
vn -0.9267 0.3505 0.1357
vn -0.8483 -0.4817 0.2201
vn -0.9065 0.0523 0.4190
vn -0.8897 0.1503 0.4311
vn -0.8731 0.1748 0.4551
vn -0.9744 0.1709 -0.1461
vn -0.8993 0.4158 -0.1353
vn -0.9829 0.0066 -0.1840
vn -0.9607 -0.2750 -0.0378
vn -0.6814 -0.6463 0.3434
vn -0.9639 -0.2555 -0.0755
vn -0.9589 -0.0862 -0.2703
vn -0.8094 -0.4586 -0.3669
vn -0.6410 -0.5451 -0.5403
vn -0.6534 -0.5237 -0.5467
vn -0.9103 -0.0512 -0.4107
vn -0.8118 -0.4130 -0.4128
vn -0.8666 -0.0155 -0.4988
vn -0.8002 -0.3878 -0.4575
vn -0.7819 -0.2098 -0.5871
vn -0.6001 -0.4111 -0.6862
vn -0.6088 -0.3623 -0.7058
vn -0.3493 -0.6934 -0.6302
vn -0.7080 0.0773 -0.7020
vn -0.3967 -0.5865 -0.7062
vn -0.5703 -0.4894 -0.6598
vn -0.5933 0.1130 -0.7970
vn -0.3476 -0.6650 -0.6610
vn -0.2498 -0.4736 -0.8446
vn -0.0071 -0.1088 -0.9940
vn -0.2191 -0.5826 -0.7827
vn -0.2397 -0.5506 -0.7996
vn -0.0594 0.0095 -0.9982
vn 0.1660 -0.1059 -0.9804
vn -0.5802 0.3267 -0.7461
vn -0.2279 -0.5499 -0.8035
vn -0.4200 0.2897 -0.8600
vn -0.1512 -0.5984 -0.7868
vn -0.1713 -0.5485 -0.8184
vn -0.3445 0.3373 -0.8761
vn -0.3624 0.2970 -0.8835
vn -0.1345 -0.5485 -0.8252
vn -0.1616 -0.4925 -0.8552
vn -0.3124 0.4284 -0.8478
vn -0.1453 0.3379 -0.9299
vn -0.3436 0.1693 -0.9237
vn -0.0226 -0.4408 -0.8973
vn 0.3352 -0.0590 -0.9403
vn -0.0385 -0.4323 -0.9009
vn 0.1571 0.2504 -0.9553
vn -0.2747 0.5704 -0.7741
vn 0.1107 -0.3375 -0.9348
vn -0.0337 -0.6474 -0.7614
vn -0.6931 0.1665 0.7013
vn 0.4359 -0.0611 -0.8979
vn 0.8041 0.0290 -0.5938
vn -0.5862 -0.4219 -0.6916
vn 0.0304 -0.5343 -0.8448
vn -0.4148 -0.6915 -0.5915
vn 0.6624 0.2955 -0.6885
vn 0.7252 0.1373 -0.6747
vn 0.8753 0.4586 -0.1533
vn 0.6839 0.2813 -0.6731
vn 0.7829 0.1537 -0.6029
vn 0.7130 0.2160 -0.6670
vn 0.7809 0.1381 -0.6092
vn 0.7512 0.1654 -0.6390
vn 0.8303 -0.1467 -0.5377
vn 0.8133 0.3195 -0.4863
vn 0.9727 0.1720 -0.1560
vn 0.7988 -0.2128 -0.5627
vn 0.8846 -0.2166 -0.4131
vn 0.7674 -0.4402 -0.4662
vn 0.9287 0.3101 0.2033
vn 0.8743 -0.2500 0.4160
vn 0.9954 0.0612 0.0738
vn 0.9512 0.2670 0.1544
vn 0.8014 -0.2539 0.5416
vn 0.8038 -0.2379 0.5452
vn 0.7464 -0.2061 0.6328
vn 0.7221 -0.2975 0.6245
vn 0.8165 -0.2481 0.5213
vn 0.8700 -0.0293 0.4922
vn 0.9198 -0.1340 0.3687
vn 0.7864 -0.2903 0.5452
vn 0.9464 0.1142 0.3021
vn 0.8900 0.3270 0.3178
vn 0.8605 0.2955 0.4151
vn 0.7364 -0.5406 -0.4067
vn 0.7054 -0.5290 -0.4719
vn 0.8108 0.3872 0.4389
vn 0.5358 0.0112 0.8443
vn 0.3487 0.2149 0.9123
vn 0.4230 -0.2520 0.8704
vn 0.1550 0.1474 0.9768
vn 0.1563 0.1394 0.9778
vn -0.0783 0.0936 0.9925
vn 0.0818 0.5295 0.8443
vn -0.4913 0.0982 0.8654
vn -0.2758 0.4864 0.8290
vn -0.1483 -0.2702 0.9513
vn 0.1098 -0.2441 0.9635
vn -0.2372 -0.2346 0.9427
vn 0.0665 -0.7646 0.6411
vn 0.3805 -0.5379 0.7522
vn -0.2923 -0.2639 0.9192
vn 0.0880 -0.7695 0.6326
vn -0.1073 -0.4816 0.8698
vn -0.5787 -0.1342 0.8044
vn -0.5562 -0.1930 0.8084
vn -0.5816 -0.4274 0.6921
vn -0.6489 -0.1833 0.7384
vn -0.6796 -0.0594 0.7311
vn 0.2546 -0.2061 -0.9448
vn 0.5421 -0.1903 0.8185
vn 0.4610 -0.6196 0.6352
vn 0.4683 0.1128 0.8763
vn 0.0748 -0.7468 0.6609
vn -0.2528 -0.8600 0.4433
vn 0.1248 -0.8386 -0.5303
vn 0.2601 -0.7743 -0.5769
vn 0.4449 -0.3946 -0.8040
vn -0.3597 -0.7534 -0.5504
vn 0.2442 -0.7633 -0.5981
vn 0.3787 -0.6010 -0.7039
vn -0.3407 -0.7804 -0.5244
vn -0.2689 -0.7908 -0.5498
vn 0.3141 -0.8762 -0.3655
vn 0.3280 -0.8789 -0.3462
vn 0.4785 -0.8766 -0.0512
vn 0.0516 -0.8878 -0.4573
vn -0.3897 -0.7074 -0.5897
vn 0.4816 -0.8662 0.1336
vn -0.6336 -0.7533 -0.1763
vn -0.4688 -0.8367 -0.2831
vn -0.3320 -0.7801 -0.5302
vn -0.2697 -0.9175 -0.2924
vn -0.1146 -0.9818 -0.1512
vn 0.4701 -0.8817 -0.0403
vn 0.1658 -0.9081 0.3847
vn -0.3859 -0.9225 0.0118
vn -0.4944 -0.8666 0.0669
vn -0.5338 -0.8450 0.0315
vn 0.0837 -0.9495 -0.3025
vn 0.1574 -0.9232 -0.3507
vn 0.1796 -0.9673 -0.1793
vn 0.2485 -0.9508 -0.1848
vn 0.4861 -0.7348 0.4731
vn -0.1380 -0.9644 0.2258
vn -0.2705 -0.9419 0.1994
vn -0.0178 -0.8668 0.4983
vn 0.2148 -0.8289 0.5165
vn 0.4466 -0.6803 0.5811
vn 0.4732 -0.6259 0.6199
vn 0.0895 -0.8298 0.5508
vn 0.1540 -0.7917 0.5912
vn 0.1166 -0.7880 0.6045
vn -0.2470 -0.8881 0.3876
vn -0.4448 -0.6817 -0.5809
vn 0.0221 -0.5069 -0.8617
vn 0.3585 -0.3912 -0.8476
vn 0.5479 -0.6683 -0.5033
vn 0.5496 -0.8204 -0.1576
vn 0.5912 -0.6318 0.5013
vn 0.2151 -0.6456 0.7328
vn -0.6003 -0.7937 -0.0985
vn 0.6224 0.5356 -0.5707
vn -0.2520 0.9360 -0.2458
vn -0.2787 0.7606 -0.5864
vn -0.0783 0.9573 -0.2782
vn 0.4279 0.7327 -0.5293
vn 0.0972 0.9580 -0.2697
vn 0.5083 0.7691 -0.3875
vn 0.5008 0.8588 -0.1082
vn -0.2370 0.9649 -0.1131
vn -0.5738 0.7679 -0.2848
vn -0.5487 0.7976 -0.2505
vn 0.2808 0.9564 -0.0802
vn -0.8038 0.5860 -0.1023
vn 0.2883 0.9452 0.1534
vn -0.3368 0.9340 -0.1194
vn -0.7845 0.5127 0.3487
vn -0.3225 0.9389 -0.1200
vn -0.7241 0.4979 0.4772
vn -0.2830 0.6856 0.6707
vn -0.4438 0.8924 0.0813
vn 0.0788 0.9441 0.3202
vn -0.5702 0.6694 0.4762
vn 0.0864 0.9531 0.2899
vn -0.1223 0.9604 0.2504
vn -0.3941 0.8273 0.4004
vn -0.3094 0.9485 0.0687
vn -0.1539 0.7702 0.6189
vn 0.5232 0.4792 0.7047
vn -0.1279 0.7066 0.6960
vn 0.7110 0.2715 -0.6487
vn -0.7247 -0.5763 0.3778
vn -0.8817 -0.3657 0.2979
vn -0.9873 -0.0741 -0.1406
vn -0.9780 0.1277 -0.1652
vn -0.9716 -0.1685 -0.1660
vn -0.9565 -0.2098 -0.2028
vn -0.7184 -0.6734 -0.1745
vn -0.4006 -0.7066 -0.5833
vn -0.3406 -0.6402 -0.6886
vn -0.8362 0.5370 -0.1113
vn -0.2973 -0.6474 -0.7018
vn -0.4238 0.2315 -0.8757
vn -0.4132 -0.7279 -0.5472
vn 0.1120 0.3489 -0.9305
vn -0.0142 -0.8788 -0.4770
vn 0.1848 -0.3486 -0.9189
vn 0.8132 0.1623 -0.5589
vn 0.8858 -0.2828 -0.3678
vn 0.9279 -0.3718 0.0264
vn 0.8650 -0.0375 0.5004
vn 0.7382 -0.5763 0.3506
vn 0.6120 -0.6115 0.5016
vn 0.7921 -0.6055 -0.0768
vn -0.2855 0.2179 0.9333
vn -0.4477 -0.1351 0.8839
vn 0.3947 -0.5300 0.7505
vn 0.0858 -0.4706 0.8781
vn -0.5689 -0.2887 0.7701
vn -0.3273 -0.2720 0.9049
vn -0.7114 -0.5008 0.4930
vn -0.6772 -0.4076 0.6126
vn -0.7088 -0.1162 0.6958
vn -0.2577 -0.7596 -0.5971
vn 0.3487 -0.4587 -0.8173
vn 0.4207 -0.5866 -0.6921
vn 0.3116 -0.8032 -0.5076
vn 0.2527 -0.8479 -0.4660
vn 0.3603 -0.9328 0.0040
vn 0.1280 -0.9035 -0.4090
vn -0.3092 -0.9410 -0.1377
vn 0.0836 -0.9494 -0.3027
vn 0.5078 -0.7284 0.4600
vn 0.5547 -0.6415 0.5298
vn 0.1234 -0.9721 -0.1995
vn -0.2735 -0.8941 0.3547
vn 0.3925 -0.8314 0.3932
vn 0.3930 -0.9016 -0.1806
vn 0.1548 -0.8411 0.5182
vn 0.2240 -0.7986 0.5587
vn -0.4889 -0.8011 0.3453
vn -0.4149 -0.6885 -0.5948
vn 0.5965 -0.7260 0.3422
vn -0.3799 0.8834 -0.2743
vn -0.4975 0.7608 -0.4168
vn -0.8318 0.3068 -0.4626
vn 0.0717 0.8884 -0.4534
vn -0.5730 0.7712 -0.2773
vn 0.0433 0.9980 -0.0463
vn -0.7025 0.6412 -0.3087
vn -0.4911 0.8652 -0.1009
vn -0.1629 0.9866 -0.0063
vn -0.1104 0.9928 0.0458
vn -0.6189 0.7650 0.1780
vn 0.0912 0.9639 0.2503
vn 0.1638 0.9366 0.3097
vn -0.3262 0.9412 -0.0878
vt 0.395840 0.005798
vt 0.421114 0.048887
vt 0.424562 0.077881
vt 0.429688 0.076644
vt 0.437721 0.093031
vt 0.430457 0.094171
vt 0.597693 0.085938
vt 0.583502 0.096069
vt 0.577392 0.094070
vt 0.452777 0.101563
vt 0.436604 0.102372
vt 0.461315 0.092255
vt 0.474636 0.101626
vt 0.609285 0.094683
vt 0.622391 0.115747
vt 0.602598 0.114194
vt 0.440196 0.126757
vt 0.421875 0.142800
vt 0.421875 0.125000
vt 0.418783 0.151761
vt 0.413903 0.132812
vt 0.429688 0.156876
vt 0.424486 0.164260
vt 0.445973 0.195846
vt 0.437500 0.205106
vt 0.437500 0.190218
vt 0.454799 0.209659
vt 0.445312 0.211922
vt 0.476776 0.231817
vt 0.457996 0.230013
vt 0.447426 0.227043
vt 0.461712 0.247865
vt 0.494676 0.259845
vt 0.459923 0.259273
vt 0.453125 0.235345
vt 0.496598 0.281211
vt 0.471248 0.266367
vt 0.476563 0.287343
vt 0.468750 0.278135
vt 0.460938 0.328540
vt 0.486175 0.293745
vt 0.476563 0.312103
vt 0.528200 0.304024
vt 0.511619 0.315416
vt 0.505287 0.320428
vt 0.484184 0.311978
vt 0.538719 0.327352
vt 0.560890 0.327972
vt 0.561129 0.308220
vt 0.526569 0.328428
vt 0.453125 0.335938
vt 0.445313 0.343750
vt 0.449399 0.325552
vt 0.432930 0.356380
vt 0.623106 0.356036
vt 0.607880 0.357142
vt 0.594802 0.343017
vt 0.551006 0.464487
vt 0.559010 0.468793
vt 0.543244 0.476897
vt 0.524582 0.482683
vt 0.525296 0.489717
vt 0.384191 0.398438
vt 0.385746 0.406250
vt 0.375000 0.406250
vt 0.391236 0.396506
vt 0.375000 0.390625
vt 0.407592 0.591275
vt 0.389184 0.590054
vt 0.375000 0.583230
vt 0.365229 0.579357
vt 0.362875 0.564867
vt 0.359733 0.552414
vt 0.349572 0.534173
vt 0.375000 0.449567
vt 0.375537 0.414063
vt 0.398464 0.398150
vt 0.406310 0.391772
vt 0.438274 0.363276
vt 0.474401 0.370649
vt 0.477394 0.415580
vt 0.490700 0.437567
vt 0.483738 0.479555
vt 0.515353 0.484630
vt 0.501613 0.501409
vt 0.487349 0.512966
vt 0.474384 0.535074
vt 0.468165 0.561976
vt 0.446415 0.570312
vt 0.422474 0.581838
vt 0.466494 0.569975
vt 0.510687 0.554232
vt 0.538846 0.572649
vt 0.489489 0.570419
vt 0.564216 0.571547
vt 0.524678 0.593320
vt 0.409687 0.598125
vt 0.391160 0.603360
vt 0.393967 0.627727
vt 0.388018 0.630603
vt 0.382813 0.617188
vt 0.404602 0.647265
vt 0.375076 0.641665
vt 0.410950 0.639831
vt 0.435927 0.632526
vt 0.425547 0.674446
vt 0.413087 0.665826
vt 0.414063 0.653151
vt 0.615284 0.546942
vt 0.631531 0.547446
vt 0.617487 0.556275
vt 0.510749 0.738011
vt 0.509527 0.750583
vt 0.485295 0.749513
vt 0.374364 0.607235
vt 0.555810 0.755509
vt 0.564954 0.782145
vt 0.539296 0.765883
vt 0.519600 0.799765
vt 0.535482 0.837616
vt 0.506495 0.874391
vt 0.500598 0.882813
vt 0.483268 0.882328
vt 0.465402 0.882504
vt 0.437768 0.865045
vt 0.446531 0.837582
vt 0.457852 0.818271
vt 0.468526 0.798755
vt 0.475973 0.775310
vt 0.598129 0.774716
vt 0.467171 0.769522
vt 0.346745 0.645940
vt 0.422111 0.682112
vt 0.429688 0.696730
vt 0.437604 0.706876
vt 0.462044 0.734539
vt 0.440324 0.890589
vt 0.429632 0.897543
vt 0.417123 0.903062
vt 0.386158 0.898438
vt 0.375000 0.898147
vt 0.234375 0.750000
vt 0.234375 0.742188
vt 0.245951 0.733370
vt 0.259456 0.710199
vt 0.265159 0.695687
vt 0.578473 0.857730
vt 0.567962 0.867188
vt 0.532112 0.866042
vt 0.609375 0.874588
vt 0.597390 0.875844
vt 0.601249 0.867188
vt 0.459915 0.890625
vt 0.475124 0.890625
vt 0.450257 0.898927
vt 0.437500 0.898438
vt 0.388307 0.911654
vt 0.398438 0.914939
vt 0.390684 0.928458
vt 0.425377 0.906609
vt 0.405048 0.939567
vt 0.399365 0.928760
vt 0.390625 0.938928
vt 0.381830 0.948546
vt 0.477139 0.750318
vt 0.278330 0.518277
vt 0.289062 0.515443
vt 0.274951 0.530226
vt 0.250000 0.609645
vt 0.241983 0.615834
vt 0.250747 0.569846
vt 0.241909 0.632813
vt 0.208022 0.631710
vt 0.349211 0.625000
vt 0.360696 0.625704
vt 0.352884 0.632813
vt 0.201544 0.641497
vt 0.160211 0.632812
vt 0.163666 0.640625
vt 0.171618 0.649845
vt 0.149821 0.642273
vt 0.305948 0.640625
vt 0.282409 0.648438
vt 0.266700 0.648438
vt 0.336679 0.640625
vt 0.323832 0.650069
vt 0.319575 0.640316
vt 0.265625 0.656250
vt 0.273438 0.657248
vt 0.265581 0.669410
vt 0.291770 0.656250
vt 0.273623 0.674955
vt 0.281250 0.656250
vt 0.233012 0.732485
vt 0.745381 0.511174
vt 0.753608 0.514078
vt 0.742188 0.523438
vt 0.653650 0.537871
vt 0.638519 0.539351
vt 0.672097 0.514724
vt 0.760736 0.530720
vt 0.744115 0.531250
vt 0.755374 0.539209
vt 0.727891 0.555880
vt 0.734042 0.536481
vt 0.813266 0.547399
vt 0.796099 0.542248
vt 0.805312 0.537268
vt 0.471442 0.328125
vt 0.560636 0.335938
vt 0.575507 0.343694
vt 0.586340 0.352947
vt 0.605855 0.374853
vt 0.757306 0.500000
vt 0.717096 0.554261
vt 0.701126 0.564423
vt 0.678611 0.556726
vt 0.664410 0.538361
vt 0.625000 0.442969
vt 0.618326 0.452243
vt 0.604772 0.454608
vt 0.582398 0.459676
vt 0.537108 0.441473
vt 0.447780 0.351563
vt 0.454878 0.343750
vt 0.461694 0.335938
vt 0.831934 0.558878
vt 0.836946 0.576923
vt 0.716590 0.590792
vt 0.718192 0.562527
vt 0.851558 0.599444
vt 0.862135 0.604523
vt 0.850716 0.620755
vt 0.726563 0.628360
vt 0.734375 0.639468
vt 0.726563 0.652837
vt 0.860271 0.632979
vt 0.850122 0.655227
vt 0.872016 0.663830
vt 0.857092 0.671156
vt 0.846660 0.668965
vt 0.836488 0.679138
vt 0.823128 0.687303
vt 0.759366 0.695313
vt 0.753606 0.683293
vt 0.742187 0.662605
vt 0.734375 0.652976
vt 0.726563 0.605719
vt 0.801498 0.701733
vt 0.821464 0.695312
vt 0.844875 0.686638
vt 0.788275 0.703125
vt 0.766102 0.703125
vt 0.793490 0.710938
vt 0.774314 0.710938
vt 0.611781 0.801406
vt 0.594732 0.750317
vt 0.523904 0.720074
vt 0.519763 0.687414
vt 0.512698 0.669971
vt 0.497282 0.650927
vt 0.571675 0.562632
vt 0.595081 0.555847
vt 0.716525 0.624651
vt 0.714979 0.683657
vt 0.714962 0.716452
vt 0.723011 0.739723
vt 0.699279 0.750000
vt 0.765625 0.712421
vt 0.765406 0.726562
vt 0.757813 0.705379
vt 0.770550 0.729731
vt 0.757812 0.736570
vt 0.680904 0.505956
vt 0.658752 0.500000
vt 0.873638 0.634013
vt 0.410702 0.004908
vt 0.616931 0.085760
vt 0.421725 0.115134
vt 0.549138 0.101563
vt 0.542868 0.093003
vt 0.522065 0.101563
vt 0.430769 0.116739
vt 0.414062 0.124921
vt 0.384260 0.125932
vt 0.430750 0.172205
vt 0.430269 0.182055
vt 0.468750 0.320313
vt 0.477723 0.320312
vt 0.578263 0.335444
vt 0.594590 0.352330
vt 0.622188 0.368052
vt 0.398858 0.388257
vt 0.409044 0.986975
vt 0.532239 0.875714
vt 0.557783 0.875000
vt 0.579109 0.867632
vt 0.616414 0.882812
vt 0.758039 0.749920
vt 0.812500 0.703125
vt 0.625000 0.078125
vt 0.577440 0.556968
vt 0.545606 0.560832
vt 0.442873 0.580078
vt 0.425787 0.589838
vt 0.478066 0.632933
vt 0.461958 0.629860
vt 0.431225 0.687637
vt 0.437500 0.695313
vt 0.445312 0.703125
vt 0.449543 0.713787
vt 0.382812 0.609375
vt 0.395517 0.906250
vt 0.406250 0.906250
vt 0.407671 0.914063
vt 0.390625 0.965087
vt 0.290642 0.507813
vt 0.303781 0.515617
vt 0.325598 0.519090
vt 0.319171 0.524469
vt 0.330776 0.506933
vt 0.265925 0.535420
vt 0.346889 0.544004
vt 0.268039 0.544923
vt 0.259349 0.554125
vt 0.358723 0.616494
vt 0.367188 0.617188
vt 0.257813 0.562500
vt 0.140392 0.625000
vt 0.435237 0.326549
vt 0.257813 0.500000
vt 0.335938 0.633107
vt 0.178875 0.640625
vt 0.239934 0.640433
vt 0.251468 0.642800
vt 0.328125 0.632813
vt 0.179861 0.648921
vt 0.260764 0.640520
vt 0.306337 0.648438
vt 0.254960 0.702391
vt 0.242705 0.724983
vt 0.227098 0.749162
vt 0.273438 0.500000
vt 0.281250 0.500867
vt 0.289063 0.500000
vt 0.375000 0.617188
vt 0.375000 0.625000
vt 0.125000 0.624623
vt 0.726563 0.546875
vt 0.849296 0.578725
vt 0.740916 0.672004
vt 0.867905 0.672217
vt 0.843750 0.679688
vt 0.747737 0.687634
vt 0.750272 0.695022
vt 0.625000 0.883039
vt 0.500619 0.114037
vt 0.394744 0.997104
vt 0.380694 0.992700
vt 0.355065 0.566830
vt 0.263494 0.686684
vt 0.175486 0.748812
vt 0.381144 -0.000769
vt 0.783992 0.529881
s 0
f 3/1/1 37/2/1 38/3/1
f 36/4/2 40/5/2 39/6/2
f 42/7/3 51/8/3 41/9/3
f 40/5/4 47/10/4 46/11/4
f 43/12/5 48/13/5 47/10/5
f 52/14/6 5/15/6 55/16/6
f 57/17/7 60/18/7 56/19/7
f 60/18/8 62/20/8 59/21/8
f 61/22/9 62/20/9 60/18/9
f 61/22/10 63/23/10 62/20/10
f 67/24/11 68/25/11 66/26/11
f 69/27/12 70/28/12 67/24/12
f 69/27/13 74/29/13 71/30/13
f 71/30/14 72/31/14 70/28/14
f 71/30/15 74/29/15 8/32/15
f 74/29/16 7/33/16 8/32/16
f 8/32/17 75/34/17 73/35/17
f 7/33/18 79/36/18 76/37/18
f 76/37/19 79/36/19 78/38/19
f 75/34/20 77/39/20 81/40/20
f 83/41/21 82/42/21 78/38/21
f 79/36/22 84/43/22 83/41/22
f 83/41/23 84/43/23 87/44/23
f 87/44/24 93/45/24 86/46/24
f 84/43/25 91/47/25 87/44/25
f 84/43/26 95/48/26 91/47/26
f 85/49/27 95/48/27 84/43/27
f 87/44/28 94/50/28 93/45/28
f 97/51/29 100/52/29 80/53/29
f 100/52/30 107/54/30 80/53/30
f 14/55/31 106/56/31 103/57/31
f 121/58/32 122/59/32 124/60/32
f 123/61/33 124/60/33 126/62/33
f 8/32/34 7/33/34 76/37/34
f 11/63/35 115/64/35 10/65/35
f 113/66/36 11/63/36 12/67/36
f 144/68/37 143/69/37 22/70/37 235/71/37 233/72/37 23/73/37 228/74/37 222/75/37 9/76/37 115/64/37 114/77/37 112/78/37 108/79/37 110/80/37 116/81/37 118/82/37 125/83/37 127/84/37 17/85/37 128/86/37 129/87/37 135/88/37 138/89/37 137/90/37
f 135/88/38 139/91/38 138/89/38
f 133/92/39 140/93/39 136/94/39
f 142/95/40 147/96/40 140/93/40
f 144/68/41 148/97/41 150/98/41
f 152/99/42 154/100/42 151/101/42
f 154/100/43 158/102/43 18/103/43
f 152/99/44 158/102/44 154/100/44
f 155/104/45 158/102/45 152/99/45
f 156/105/46 160/106/46 155/104/46
f 158/102/47 162/107/47 18/103/47
f 159/108/48 162/107/48 158/102/48
f 160/106/49 162/107/49 159/108/49
f 132/109/50 294/110/50 24/111/50
f 172/112/51 27/113/51 28/114/51
f 22/70/52 143/69/52 21/115/52
f 27/113/53 26/116/53 179/117/53 177/118/53 182/119/53 183/120/53 194/121/53 198/122/53 197/123/53 193/124/53 185/125/53 184/126/53 181/127/53 180/128/53 175/129/53
f 26/116/54 178/130/54 179/117/54
f 175/129/55 180/128/55 176/131/55
f 272/132/56 18/103/56 162/107/56 163/133/56 167/134/56 169/135/56 174/136/56 176/131/56 180/128/56 181/127/56 184/126/56 185/125/56 192/137/56 201/138/56 205/139/56 204/140/56 31/141/56 32/142/56 280/143/56 279/144/56 278/145/56 274/146/56
f 186/147/57 188/148/57 187/149/57
f 191/150/58 196/151/58 190/152/58
f 193/124/59 202/153/59 192/137/59
f 193/124/60 203/154/60 202/153/60
f 198/122/61 203/154/61 197/123/61
f 192/137/62 210/155/62 206/156/62
f 211/157/63 212/158/63 214/159/63
f 209/160/64 217/161/64 215/162/64
f 214/159/65 216/163/65 30/164/65
f 29/165/66 175/129/66 176/131/66
f 214/159/67 30/164/67 31/141/67
f 220/166/68 223/167/68 227/168/68
f 237/169/69 238/170/69 236/171/69
f 238/170/70 247/172/70 246/173/70
f 243/174/71 244/175/71 249/176/71
f 246/173/72 261/177/72 245/178/72
f 251/179/73 259/180/73 250/181/73
f 256/182/74 263/183/74 262/184/74
f 258/185/75 269/186/75 257/187/75
f 272/132/76 269/186/76 258/185/76
f 265/188/77 266/189/77 270/190/77
f 268/191/78 271/192/78 267/193/78
f 269/186/79 274/146/79 271/192/79
f 277/194/80 279/144/80 280/143/80
f 282/195/81 283/196/81 285/197/81
f 292/198/82 284/199/82 289/200/82
f 283/196/83 286/201/83 291/202/83
f 286/201/84 304/203/84 291/202/84
f 304/203/85 299/204/85 290/205/85
f 300/206/86 297/207/86 288/208/86
f 92/209/87 93/45/87 94/50/87 91/47/87 99/210/87 102/211/87 105/212/87 111/213/87 15/214/87 282/195/87 285/197/87 291/202/87 290/205/87 295/215/87 302/216/87 298/217/87 293/218/87 289/200/87 281/219/87 16/220/87 120/221/87 119/222/87 121/58/87 117/223/87 118/82/87 116/81/87 110/80/87 104/224/87 101/225/87 98/226/87
f 301/227/88 308/228/88 300/206/88
f 299/204/89 305/229/89 303/230/89
f 309/231/90 6/232/90 313/233/90
f 311/234/91 312/235/91 315/236/91
f 314/237/92 317/238/92 313/233/92
f 314/237/93 4/239/93 320/240/93
f 322/241/94 325/242/94 328/243/94
f 331/244/95 324/245/95 319/246/95 316/247/95 312/235/95 311/234/95 307/248/95 299/204/95 304/203/95 297/207/95 300/206/95 308/228/95 309/231/95 313/233/95 317/238/95 328/243/95 332/249/95
f 328/243/96 333/250/96 332/249/96
f 329/251/97 333/250/97 325/242/97
f 331/244/98 337/252/98 336/253/98
f 337/252/99 341/254/99 340/255/99
f 33/256/100 178/130/100 25/257/100 26/116/100 173/258/100 166/259/100 164/260/100 161/261/100 147/96/100 142/95/100 141/262/100 134/263/100 24/111/100 294/110/100 284/199/100 292/198/100 293/218/100 298/217/100 302/216/100 305/229/100 310/264/100 311/234/100 315/236/100 321/265/100 334/266/100 345/267/100 34/268/100
f 339/269/101 342/270/101 335/271/101
f 344/272/102 342/270/102 339/269/102
f 342/270/103 344/272/103 343/273/103
f 281/274/104 289/200/104 16/275/104
f 15/214/105 283/196/105 282/195/105
f 6/232/106 5/276/106 314/237/106
f 37/2/107 3/1/107 219/277/107
f 36/4/108 38/3/108 37/2/108
f 43/12/109 36/4/109 37/2/109
f 36/4/110 43/12/110 40/5/110
f 42/7/111 52/14/111 51/8/111
f 42/7/112 4/278/112 52/14/112
f 39/6/113 46/11/113 45/279/113
f 40/5/114 43/12/114 47/10/114
f 50/280/115 44/281/115 51/8/115
f 44/281/116 50/280/116 49/282/116
f 44/281/117 41/9/117 51/8/117
f 51/8/118 52/14/118 55/16/118
f 47/10/119 48/13/119 57/17/119
f 54/283/120 45/279/120 46/11/120
f 45/279/121 53/284/121 1/285/121
f 56/19/122 53/284/122 45/279/122
f 57/17/123 61/22/123 60/18/123
f 63/23/124 61/22/124 64/286/124
f 63/23/125 64/286/125 65/287/125
f 66/26/126 65/287/126 64/286/126
f 64/286/127 67/24/127 66/26/127
f 68/25/128 67/24/128 70/28/128
f 70/28/129 69/27/129 71/30/129
f 72/31/130 71/30/130 73/35/130
f 73/35/131 71/30/131 8/32/131
f 75/34/132 76/37/132 77/39/132
f 77/39/133 76/37/133 78/38/133
f 80/53/134 75/34/134 81/40/134
f 78/38/135 79/36/135 83/41/135
f 78/38/136 82/42/136 77/39/136
f 82/42/137 83/41/137 86/46/137
f 86/46/138 83/41/138 87/44/138
f 77/39/139 89/288/139 81/40/139
f 90/289/140 82/42/140 86/46/140
f 86/46/141 93/45/141 90/289/141
f 92/209/142 89/288/142 90/289/142
f 89/288/143 92/209/143 81/40/143
f 94/50/144 87/44/144 91/47/144
f 90/289/145 93/45/145 92/209/145
f 85/49/146 96/290/146 95/48/146
f 98/226/147 81/40/147 92/209/147
f 95/48/148 96/290/148 99/210/148
f 101/225/149 97/51/149 98/226/149
f 97/51/150 101/225/150 100/52/150
f 96/290/151 103/57/151 102/211/151
f 99/210/152 96/290/152 102/211/152
f 104/224/153 100/52/153 101/225/153
f 100/52/154 104/224/154 107/54/154
f 103/57/155 106/56/155 109/291/155
f 102/211/156 103/57/156 105/212/156
f 103/57/157 109/291/157 105/212/157
f 108/79/158 107/54/158 104/224/158
f 104/224/159 110/80/159 108/79/159
f 107/54/160 108/79/160 112/78/160
f 105/212/161 109/291/161 111/213/161
f 106/56/162 14/55/162 15/292/162
f 114/77/163 113/66/163 13/293/163
f 115/64/164 11/63/164 113/66/164
f 44/281/165 49/282/165 48/13/165 43/12/165 37/2/165 219/294/165 217/161/165 209/160/165 210/155/165 202/153/165 203/154/165 198/122/165 199/295/165 195/296/165 189/297/165 196/151/165 200/298/165 35/299/165 344/272/165 340/255/165 341/254/165 332/249/165 338/300/165 333/250/165 329/251/165 327/301/165 4/278/165 42/7/165 41/9/165
f 121/58/166 119/222/166 122/59/166
f 127/84/167 123/61/167 126/62/167
f 75/34/168 8/32/168 76/37/168
f 9/76/169 10/65/169 115/64/169
f 13/293/170 113/66/170 12/67/170
f 129/87/171 128/86/171 133/92/171
f 284/199/172 294/110/172 132/109/172 134/263/172 130/302/172 131/303/172 133/92/172 128/86/172 17/85/172 127/84/172 126/62/172 124/60/172 122/59/172 119/222/172 120/221/172 16/275/172
f 134/263/173 132/109/173 24/111/173
f 129/87/174 133/92/174 136/94/174
f 141/262/175 130/302/175 134/263/175
f 135/88/176 129/87/176 136/94/176
f 130/302/177 141/262/177 131/303/177
f 133/92/178 131/303/178 140/93/178
f 145/304/179 138/89/179 139/91/179
f 131/303/180 142/95/180 140/93/180
f 131/303/181 141/262/181 142/95/181
f 137/90/182 138/89/182 145/304/182
f 146/305/183 137/90/183 145/304/183
f 150/98/184 143/69/184 144/68/184
f 147/96/185 161/261/185 157/306/185
f 158/102/186 155/104/186 159/108/186
f 139/91/187 136/94/187 140/93/187 147/96/187 157/306/187 153/307/187 156/105/187 155/104/187 152/99/187 150/98/187 148/97/187 146/305/187 145/304/187
f 155/104/188 160/106/188 159/108/188
f 163/133/189 160/106/189 165/308/189
f 162/107/190 160/106/190 163/133/190
f 167/134/191 165/308/191 168/309/191
f 163/133/192 165/308/192 167/134/192
f 167/134/193 168/309/193 169/135/193
f 170/310/194 168/309/194 165/308/194
f 169/135/195 170/310/195 171/311/195
f 169/135/196 171/311/196 174/136/196
f 172/112/197 28/114/197 29/165/197 174/136/197 171/311/197 170/310/197 165/308/197 160/106/197 156/105/197 153/307/197 157/306/197 161/261/197 164/260/197 166/259/197 173/258/197
f 172/112/198 173/258/198 26/116/198
f 172/112/199 26/116/199 27/113/199
f 149/312/200 21/115/200 150/98/200
f 21/115/201 143/69/201 150/98/201
f 25/257/202 178/130/202 26/116/202
f 183/120/203 187/149/203 194/121/203
f 186/147/204 189/297/204 188/148/204
f 192/137/205 185/125/205 193/124/205
f 199/295/206 187/149/206 195/296/206
f 187/149/207 199/295/207 194/121/207
f 187/149/208 188/148/208 195/296/208
f 196/151/209 189/297/209 190/152/209
f 194/121/210 199/295/210 198/122/210
f 200/298/211 196/151/211 191/150/211
f 203/154/212 193/124/212 197/123/212
f 206/156/213 201/138/213 192/137/213
f 210/155/214 192/137/214 202/153/214
f 211/157/215 204/140/215 207/313/215
f 204/140/216 208/314/216 207/313/216
f 209/160/217 205/139/217 201/138/217
f 211/157/218 207/313/218 212/158/218
f 213/315/219 208/314/219 205/139/219
f 215/162/220 213/315/220 209/160/220
f 213/315/221 215/162/221 212/158/221
f 215/162/222 214/159/222 212/158/222
f 216/163/223 217/161/223 218/316/223
f 217/161/224 219/294/224 218/316/224
f 121/58/225 124/60/225 123/61/225 127/84/225 125/83/225 118/82/225 117/223/225
f 175/129/226 29/165/226 28/114/226
f 174/136/227 29/165/227 176/131/227
f 28/114/228 27/113/228 175/129/228
f 31/141/229 204/140/229 211/157/229
f 31/141/230 211/157/230 214/159/230
f 223/167/231 221/317/231 224/318/231
f 224/318/232 225/319/232 226/320/232
f 222/321/233 228/74/233 225/319/233
f 220/166/234 227/168/234 12/322/234
f 226/320/235 225/319/235 231/323/235
f 225/319/236 228/74/236 231/323/236
f 12/322/237 227/168/237 230/324/237
f 12/322/238 230/324/238 229/325/238
f 235/71/239 21/115/239 239/326/239
f 21/115/240 240/327/240 239/326/240
f 239/326/241 244/175/241 243/174/241
f 247/172/242 238/170/242 237/169/242
f 232/328/243 236/171/243 238/170/243 246/173/243 245/178/243 250/181/243 241/329/243 1/285/243 59/21/243 62/20/243 63/23/243 65/287/243 66/26/243 68/25/243 70/28/243 72/31/243 75/34/243 80/53/243 88/330/243 107/54/243 112/78/243 13/331/243 12/322/243 229/325/243
f 243/174/244 249/176/244 242/332/244
f 245/178/245 251/179/245 250/181/245
f 245/178/246 252/333/246 251/179/246
f 245/178/247 261/177/247 252/333/247
f 246/173/248 253/334/248 261/177/248
f 253/334/249 247/172/249 254/335/249
f 248/336/250 258/185/250 257/187/250
f 248/336/251 242/332/251 258/185/251
f 260/337/252 252/333/252 261/177/252
f 251/179/253 252/333/253 259/180/253
f 252/333/254 260/337/254 259/180/254
f 255/338/255 262/184/255 254/335/255
f 262/184/256 255/338/256 256/182/256
f 264/339/257 256/182/257 257/187/257
f 256/182/258 264/339/258 263/183/258
f 257/187/259 269/186/259 264/339/259
f 265/188/260 254/335/260 262/184/260
f 265/188/261 262/184/261 266/189/261
f 270/190/262 266/189/262 271/192/262
f 267/193/263 271/192/263 266/189/263
f 268/191/264 269/186/264 271/192/264
f 269/186/265 272/132/265 274/146/265
f 275/340/266 278/145/266 276/341/266
f 279/144/267 276/341/267 278/145/267
f 276/341/268 279/144/268 277/194/268
f 277/194/269 280/143/269 31/342/269
f 12/322/270 11/343/270 220/166/270
f 10/344/271 9/345/271 221/317/271
f 221/317/272 9/345/272 222/321/272
f 235/71/273 22/70/273 21/115/273
f 240/327/274 21/115/274 20/346/274
f 244/175/275 19/347/275 18/103/275
f 32/142/276 31/342/276 280/143/276
f 1/348/277 241/329/277 250/181/277
f 289/200/278 293/218/278 292/198/278
f 290/205/279 291/202/279 304/203/279
f 285/197/280 283/196/280 291/202/280
f 296/349/281 290/205/281 299/204/281
f 290/205/282 296/349/282 295/215/282
f 296/349/283 299/204/283 295/215/283
f 295/215/284 303/230/284 302/216/284
f 302/216/285 303/230/285 305/229/285
f 299/204/286 307/248/286 305/229/286
f 308/228/287 306/350/287 309/231/287
f 6/232/288 314/237/288 313/233/288
f 312/235/289 316/247/289 315/236/289
f 314/237/290 5/276/290 4/239/290
f 315/236/291 316/247/291 318/351/291
f 317/238/292 322/241/292 328/243/292
f 327/352/293 320/240/293 4/239/293
f 322/241/294 326/353/294 325/242/294
f 329/251/295 320/240/295 327/352/295
f 325/242/296 326/353/296 329/251/296
f 333/250/297 328/243/297 325/242/297
f 335/271/298 331/244/298 336/253/298
f 338/300/299 332/249/299 333/250/299
f 335/271/300 336/253/300 339/269/300
f 339/269/301 336/253/301 340/255/301
f 341/254/302 337/252/302 332/249/302
f 336/253/303 337/252/303 340/255/303
f 340/255/304 344/272/304 339/269/304
f 334/266/305 321/265/305 315/236/305 318/351/305 323/354/305 330/355/305 335/271/305 342/270/305 343/273/305 35/356/305 200/298/305 191/150/305 190/152/305 189/297/305 186/147/305 187/149/305 183/120/305 182/119/305 177/118/305 179/117/305 178/130/305 33/256/305 34/268/305 345/267/305
f 343/273/306 344/272/306 35/299/306
f 16/275/307 289/200/307 284/199/307
f 38/3/308 36/4/308 39/6/308
f 39/6/309 40/5/309 46/11/309
f 57/17/310 54/283/310 46/11/310 47/10/310
f 48/13/311 49/282/311 58/357/311
f 54/283/312 57/17/312 56/19/312 45/279/312
f 56/19/313 60/18/313 59/21/313 53/284/313
f 59/21/314 1/285/314 53/284/314
f 73/35/315 75/34/315 72/31/315
f 82/42/316 90/289/316 89/288/316 77/39/316
f 5/15/317 52/14/317 4/278/317
f 98/226/318 97/51/318 80/53/318 81/40/318
f 99/210/319 91/47/319 95/48/319
f 88/330/320 80/53/320 107/54/320
f 106/56/321 15/292/321 111/213/321 109/291/321
f 114/77/322 13/293/322 112/78/322
f 115/64/323 113/66/323 114/77/323
f 139/91/324 135/88/324 136/94/324
f 144/68/325 137/90/325 146/305/325 148/97/325
f 150/98/326 152/99/326 151/101/326 149/312/326
f 170/310/327 169/135/327 168/309/327
f 151/101/328 154/100/328 19/347/328 20/346/328
f 18/103/329 19/347/329 154/100/329
f 149/312/330 151/101/330 20/346/330 21/115/330
f 189/297/331 195/296/331 188/148/331
f 206/156/332 210/155/332 209/160/332 201/138/332
f 208/314/333 204/140/333 205/139/333
f 207/313/334 208/314/334 213/315/334 212/158/334
f 215/162/335 217/161/335 216/163/335 214/159/335
f 213/315/336 205/139/336 209/160/336
f 218/316/337 3/358/337 2/359/337 30/164/337
f 30/164/338 216/163/338 218/316/338
f 3/358/339 218/316/339 219/294/339
f 10/344/340 221/317/340 223/167/340 220/166/340
f 225/319/341 224/318/341 221/317/341 222/321/341
f 23/73/342 231/323/342 228/74/342
f 23/73/343 233/72/343 234/360/343 231/323/343
f 234/360/344 233/72/344 235/71/344
f 244/175/345 239/326/345 240/327/345
f 243/174/346 242/332/346 248/336/346 257/187/346 256/182/346 255/338/346 247/172/346 237/169/346 236/171/346 232/328/346 229/325/346 230/324/346 227/168/346 223/167/346 224/318/346 226/320/346 231/323/346 234/360/346 235/71/346 239/326/346
f 253/334/347 246/173/347 247/172/347
f 255/338/348 254/335/348 247/172/348
f 249/176/349 272/132/349 258/185/349 242/332/349
f 18/103/350 272/132/350 249/176/350 244/175/350
f 263/183/351 267/193/351 266/189/351 262/184/351
f 265/188/352 270/190/352 254/335/352
f 264/339/353 269/186/353 268/191/353 263/183/353
f 268/191/354 267/193/354 263/183/354
f 271/192/355 274/146/355 273/361/355 270/190/355
f 274/146/356 278/145/356 275/340/356 273/361/356
f 273/361/357 275/340/357 276/341/357 277/194/357 31/342/357 30/362/357 2/363/357 3/1/357 38/3/357 39/6/357 45/279/357 1/348/357 250/181/357 259/180/357 260/337/357 261/177/357 253/334/357 254/335/357 270/190/357
f 10/344/358 220/166/358 11/343/358
f 240/327/359 20/346/359 19/347/359 244/175/359
f 287/364/360 297/207/360 304/203/360 286/201/360
f 288/208/361 297/207/361 287/364/361
f 287/364/362 286/201/362 283/196/362 15/214/362 14/55/362 103/57/362 96/290/362 85/49/362 84/43/362 79/36/362 7/33/362 74/29/362 69/27/362 67/24/362 64/286/362 61/22/362 57/17/362 48/13/362 58/357/362 49/282/362 50/280/362 51/8/362 55/16/362 5/15/362 6/232/362 306/350/362 301/227/362 300/206/362 288/208/362
f 303/230/363 295/215/363 299/204/363
f 306/350/364 308/228/364 301/227/364
f 307/248/365 311/234/365 310/264/365 305/229/365
f 6/232/366 309/231/366 306/350/366
f 320/240/367 322/241/367 317/238/367 314/237/367
f 319/246/368 318/351/368 316/247/368
f 318/351/369 319/246/369 324/245/369 323/354/369
f 322/241/370 320/240/370 329/251/370 326/353/370
f 324/245/371 331/244/371 330/355/371 323/354/371
f 330/355/372 331/244/372 335/271/372
f 337/252/373 331/244/373 332/249/373
